<?xml version="1.0" encoding="utf-8"?>
<svg width="1024" height="597.955" viewBox="0 0 1024 597.955" fill="none" xmlns="http://www.w3.org/2000/svg">
  <g>
    <path d="M675.464 97.2665C672.51 98.6359 662.781 97.4724 658.816 97.4724C645.39 97.4724 631.964 97.4992 618.538 97.3023C584.562 96.7921 550.469 96.9801 516.502 97.4903C490.876 97.8841 467.408 95.8523 443.805 107.819C419.549 120.108 410.097 140.936 396.842 162.883C378.824 192.706 360.807 222.771 344.141 253.373C338.6 263.55 332.585 273.468 326.839 283.528C324.521 287.574 321.961 294.081 318.354 296.9C305.796 273.951 299.119 248.084 296.416 222.225C293.758 196.895 296.801 171.198 303.666 146.799C309.753 125.165 319.947 104.722 332.899 86.3915C390.129 5.38884 501.232 -23.4768 590.55 20.569C625.672 37.8884 654.466 64.3194 675.464 97.2665ZM492.121 300.006C500.57 284.79 509.019 269.574 517.46 254.358C524.468 252.819 532.55 253.785 539.773 253.785C553.199 253.785 566.625 253.66 580.051 253.696C590.38 253.723 602.472 252.129 604.549 240.001C607.171 224.669 599.295 219.549 585.421 219.146C574.985 218.842 564.531 218.994 554.094 219.012C548.778 219.021 542.888 219.719 537.724 218.556C542.226 210.097 547.113 201.782 551.821 193.414C553.566 190.299 555.347 185 558.704 183.326C561.828 181.76 565.972 182.476 569.31 182.548C576.775 182.709 584.222 182.718 591.687 183.067C619.013 184.382 651.226 184.794 660.955 215.906C662.352 220.373 662.728 225.483 662.477 230.147C660.615 264.356 632.6 290.259 600.503 297.553C581.716 301.814 561.577 299.943 542.459 300.4C531.423 300.668 520.378 300.588 509.341 300.597C503.828 300.597 497.41 301.447 492.121 300.006ZM500.794 254.358C491.709 269.717 482.624 285.067 473.539 300.427C444.101 300.427 414.662 300.427 385.215 300.427C386.164 295.987 389.162 292.174 391.588 288.272C396.045 281.093 400.279 273.763 405.023 266.764C407.35 263.318 409.65 258.502 413.373 256.372C420.48 252.308 430.818 253.964 438.632 253.964C452.353 253.973 466.074 253.785 479.805 253.785C486.544 253.785 494.287 252.792 500.794 254.358ZM532.774 549.056C527.476 549.056 522.186 549.056 516.896 549.056C516.153 545.807 517.102 542.226 514.712 539.684C509.986 540.356 509.288 546.379 512.555 549.655C519.268 556.386 531.933 556.368 533.938 568.523C534.359 571.056 534.538 573.786 534.421 576.355C534.305 579.04 534.108 581.976 532.739 584.348C527.216 593.907 504.741 593.594 497.867 585.825C493.938 581.403 494.618 574.52 494.475 569.042C500.006 569.042 505.547 569.042 511.087 569.042C511.15 572.846 510.094 578.387 512.922 581.206C518.695 580.938 518.874 574.063 516.198 570.161C514.614 567.861 511.042 566.447 508.706 565.068C499.917 559.886 493.651 556.771 493.983 545.252C494.054 542.844 494.296 540.087 495.209 537.849C499.559 527.189 521.658 527.404 529.301 533.849C533.508 537.393 533.195 544.142 532.774 549.056ZM934.78 549.065C929.616 549.065 924.443 549.065 919.278 549.065C918.669 546.004 918.052 542.943 917.443 539.882C912.261 539.747 911.384 545.35 914.14 549.083C916.145 551.813 920.728 553.218 923.601 554.82C932.919 560.02 936.893 564.531 936.669 575.684C936.615 578.351 936.418 581.538 935.192 583.954C930.01 594.194 906.881 593.361 899.927 585.646C896.239 581.573 896.338 574.127 896.902 569.025C902.388 569.025 907.866 569.025 913.353 569.025C913.371 572.712 912.225 578.19 914.847 581.054C921.077 581.35 921.122 573.751 918.267 569.92C917.443 568.81 915.778 568.04 914.633 567.297C908.108 563.055 898.477 559.949 896.714 551.374C896.239 549.074 896.23 546.693 896.302 544.357C896.391 541.725 896.642 539.255 897.904 536.901C903.051 527.342 925.248 527.163 932.194 534.565C935.702 538.297 935.246 544.393 934.78 549.065ZM1003.28 556.413C997.362 556.413 991.437 556.413 985.512 556.413C985.521 551.75 987.176 543.211 983.721 539.72C978.477 539.989 979.425 543.56 979.363 547.937C979.246 556.288 979.318 564.648 979.354 572.999C979.38 577.393 978.351 581.179 983.721 581.179C986.827 577.832 985.494 571.047 985.539 566.733C990.658 565.4 998.132 565.328 1003.23 566.733C1003.47 572.005 1003.95 579.586 1000.59 584.07C993.621 593.397 975.245 594.229 966.608 586.988C958.902 580.535 961.649 560.808 961.649 551.517C961.649 547.471 961.309 543.023 962.911 539.201C968.013 527.055 992.09 526.474 999.913 535.773C1004.47 541.179 1003.3 549.852 1003.28 556.413ZM0 531.199C9.80088 531.199 19.6018 531.199 29.4026 531.199C29.4026 535.147 29.4026 539.094 29.4026 543.041C25.5091 543.041 21.6067 543.041 17.7132 543.041C17.7132 546.666 17.7132 550.3 17.7132 553.934C21.3829 553.934 25.0437 553.934 28.7134 553.934C28.7134 557.765 28.7134 561.604 28.7134 565.435C25.0527 565.435 21.4008 565.435 17.74 565.435C17.74 569.785 17.74 574.135 17.74 578.485C22.0721 578.485 26.4042 578.485 30.7452 578.485C30.7452 582.459 30.7452 586.442 30.7452 590.416C20.4968 590.416 10.2484 590.416 0 590.416C0 570.671 0 550.935 0 531.199ZM82.3632 531.826C82.3632 535.469 82.3632 539.103 82.3632 542.746C88.4675 542.164 92.6921 538.449 99.3514 542.074C105.187 545.243 104.489 551.043 104.498 556.888C104.516 568.049 104.453 579.21 104.516 590.372C98.8859 590.372 93.265 590.372 87.6351 590.372C87.2502 580.132 87.5187 569.83 87.5187 559.573C87.5187 555.912 88.548 551.105 85.0842 549.154C81.4502 550.917 82.3274 555.903 82.3453 559.573C82.4079 569.839 82.3453 580.114 82.3811 590.381C76.7064 590.381 71.0228 590.381 65.3481 590.381C65.3481 570.868 65.3481 551.347 65.3481 531.826C70.4231 530.546 77.2882 530.519 82.3632 531.826ZM130.15 531.189C130.15 533.633 130.15 536.076 130.15 538.52C124.368 538.52 118.586 538.52 112.804 538.52C112.804 536.076 112.804 533.633 112.804 531.189C118.586 531.189 124.368 531.189 130.15 531.189ZM202.041 531.181C212.057 531.181 222.064 531.181 232.079 531.181C232.079 535.137 232.079 539.094 232.079 543.059C228.007 543.059 223.934 543.059 219.871 543.059C219.871 546.684 219.871 550.318 219.871 553.943C223.451 553.943 227.031 553.943 230.612 553.943C230.612 557.773 230.612 561.613 230.612 565.444C227.013 565.444 223.424 565.444 219.826 565.444C219.826 573.75 219.826 582.065 219.826 590.38C213.901 590.38 207.967 590.38 202.041 590.38C202.041 570.644 202.041 550.908 202.041 531.181ZM254.957 531.827C254.957 534.046 254.957 536.266 254.957 538.486C249.166 538.486 243.375 538.486 237.584 538.486C237.584 536.266 237.584 534.046 237.584 531.827C242.462 530.368 250.052 530.484 254.957 531.827ZM285.085 531.173C290.75 531.173 296.407 531.173 302.073 531.173C302.073 550.783 302.073 570.394 302.073 590.005C299.62 590.497 287.627 591.356 285.747 590.22C284.977 589.763 284.915 588.626 284.682 587.839C282.605 588.913 280.529 590.488 278.211 591.052C276.564 591.446 274.72 591.49 273.046 591.374C259.549 590.408 262.923 573.428 262.923 564.048C262.923 558.454 261.142 548.671 265.223 544.124C271.095 537.572 278.64 541.376 285.085 543.641C285.085 539.488 285.085 535.326 285.085 531.173ZM373.74 531.19C373.74 550.935 373.74 570.672 373.74 590.417C367.931 590.417 362.113 590.417 356.304 590.417C356.304 570.672 356.304 550.935 356.304 531.19C362.113 531.19 367.931 531.19 373.74 531.19ZM381.84 531.19C387.631 531.19 393.414 531.19 399.205 531.19C399.205 533.625 399.205 536.05 399.205 538.485C393.414 538.485 387.631 538.485 381.84 538.485C381.84 536.05 381.84 533.625 381.84 531.19ZM712.196 531.18C717.996 531.18 723.796 531.18 729.587 531.18C729.587 533.623 729.587 536.067 729.587 538.51C723.796 538.51 717.996 538.51 712.196 538.51C712.196 536.067 712.196 533.623 712.196 531.18ZM765.989 531.184C771.816 531.184 777.643 531.184 783.469 531.184C783.469 533.627 783.469 536.062 783.469 538.505C777.643 538.505 771.816 538.505 765.989 538.505C765.989 536.062 765.989 533.627 765.989 531.184ZM38.5412 535.066C44.1442 535.066 49.7383 535.066 55.3414 535.066C55.3414 537.706 55.3414 540.347 55.3414 542.996C56.8362 542.996 58.3398 542.996 59.8435 542.996C59.8435 545.234 59.8435 547.48 59.8435 549.727C58.4114 550.192 56.9794 550.658 55.5473 551.132C54.9744 558.66 55.3414 566.339 55.3414 573.893C55.3414 575.711 54.6254 580.275 56.1917 581.672C57.1494 582.54 59.3513 582.558 60.6043 582.844C60.6043 585.234 60.6043 587.615 60.6043 590.005C55.1355 591.007 44.8603 592.045 40.5461 587.588C37.7804 584.733 38.2995 580.213 38.2727 576.579C38.219 568.228 38.1921 559.868 38.2995 551.517C37.0554 550.917 35.8023 550.327 34.5582 549.727C34.5582 547.641 34.5582 545.547 34.5582 543.462C40.0091 542.298 37.9594 539.801 38.5412 535.066ZM408.2 535.057C413.848 535.057 419.495 535.057 425.143 535.057C425.143 537.563 425.143 540.06 425.143 542.566C430.639 543.855 430.057 544.365 429.52 549.727C428.088 550.255 426.647 550.783 425.206 551.32C425.152 558.839 425.099 566.366 425.125 573.893C425.134 575.764 424.454 580.132 425.895 581.671C426.745 582.575 429.162 582.593 430.353 582.844C430.353 585.234 430.353 587.615 430.353 590.004C424.955 590.971 415.146 591.965 410.643 587.973C407.734 585.395 408.057 581.027 408.021 577.474C407.94 568.818 408.11 560.172 407.976 551.517C406.732 550.917 405.497 550.326 404.262 549.727C404.262 547.641 404.262 545.547 404.262 543.461C409.704 542.289 407.752 539.756 408.2 535.057ZM755.465 535.075C755.465 537.572 755.465 540.069 755.465 542.566C761.202 543.963 760.029 544.169 760.011 549.727C758.517 550.309 757.031 550.891 755.545 551.472C755.545 561.756 755.545 572.041 755.545 582.334C757.255 582.334 758.964 582.334 760.683 582.334C760.683 584.894 760.683 587.445 760.683 590.005C755.25 590.971 745.503 591.965 740.982 587.946C737.859 585.162 738.36 580.374 738.351 576.579C738.342 568.228 738.342 559.868 738.351 551.517C737.116 550.917 735.89 550.327 734.654 549.727C734.529 544.983 733.321 543.632 738.387 542.566C738.387 540.069 738.387 537.572 738.387 535.075C744.079 535.075 749.772 535.075 755.465 535.075ZM152.482 540.732C160.86 539.712 172.755 541.421 175.718 550.792C177.311 555.832 176.747 561.515 176.738 566.733C176.702 577.734 176.765 588.367 163.608 590.989C156.635 592.377 145.375 592.207 140.667 585.879C137.06 581.027 137.669 574.234 137.669 568.523C137.669 555.849 136.389 542.692 152.482 540.732ZM347.998 567.037C340.91 567.037 333.83 567.037 326.75 567.037C326.356 569.293 325.524 580.401 327.17 581.851C328.262 582.79 329.041 582.414 330.33 582.513C333.105 579.335 331.896 574.144 332.281 569.982C337.562 569.982 342.843 569.982 348.124 569.982C348.526 573.84 348.706 578.566 347.166 582.227C342.36 593.594 323.17 594.265 314.577 587.409C307.157 581.484 309.332 569.678 309.359 561.363C309.368 557.299 309.189 553.245 310.746 549.405C315.436 537.841 335.128 538.118 343.371 545.18C349.055 550.058 349.153 560.262 347.998 567.037ZM579.541 567.028C572.398 567.028 565.256 567.028 558.113 567.028C558.113 572.032 558.113 577.035 558.113 582.038C566.384 583.515 563.009 575.898 563.94 569.973C569.176 569.973 574.412 569.973 579.648 569.973C579.836 574.547 580.338 579.675 577.84 583.748C571.763 593.701 552.725 594.426 544.857 586.29C538.789 580.033 540.982 568.371 541 560.467C541.009 556.368 540.901 552.385 542.647 548.581C547.677 537.643 569.31 538.243 576.364 546.657C580.821 551.973 580.051 560.629 579.541 567.028ZM625.269 559.975C620.042 559.975 614.815 559.975 609.588 559.975C608.872 555.464 611.208 549.306 605.112 549.593C603.179 556.834 604.343 565.525 604.36 572.998C604.369 576.391 603.976 579.738 606.007 582.459C606.992 582.406 607.601 582.763 608.594 582.316C610.671 581.367 610.143 572.81 610.483 570.546C615.253 570.546 620.033 570.546 624.804 570.546C627.417 584.178 619.013 591.419 606.007 591.392C599.25 591.383 591.507 589.727 588.786 582.647C585.931 575.227 587.363 565.587 587.417 557.782C587.444 553.969 587.489 549.807 590.004 546.675C596.905 538.073 615.182 538.055 622.145 546.541C625.162 550.228 625.251 555.455 625.269 559.975ZM706.165 540.777C706.165 546.147 706.165 551.517 706.165 556.888C703.551 557.774 699.264 557.684 697.501 560.208C695.836 562.58 696.14 566.653 696.078 569.418C695.943 576.409 696.122 583.408 696.015 590.399C690.376 590.399 684.737 590.399 679.089 590.399C679.089 574.225 679.089 558.042 679.089 541.86C682.992 541.188 687.073 541.475 691.038 541.484C692.121 541.484 694.941 540.974 695.693 541.949C696.319 542.764 696.149 545.243 696.409 546.299C698.807 542.773 701.878 540.821 706.165 540.777ZM829.772 567.037C822.612 567.037 815.451 567.037 808.291 567.037C807.897 569.266 807.056 580.49 808.694 581.904C809.777 582.835 810.6 582.45 811.871 582.531C814.583 579.246 813.482 574.171 813.751 569.973C819.094 569.973 824.429 569.973 829.772 569.973C830.014 573.813 830.282 578.646 828.716 582.271C823.856 593.549 803.144 594.292 795.133 586.576C788.653 580.338 790.864 568.541 790.9 560.468C790.909 556.69 790.846 552.967 792.287 549.396C797.103 537.429 818.718 537.787 826.246 546.54C830.73 551.776 830.157 560.638 829.772 567.037ZM871.84 556.986C867.016 556.986 862.192 556.986 857.367 556.986C856.624 552.761 858.137 549.638 853.044 549.369C848.381 554.927 854.852 558.767 859.399 560.826C867.437 564.46 873.281 566.536 873.219 576.579C873.201 579.389 872.977 582.307 871.652 584.849C866.962 593.844 845.347 593.415 839.224 586.353C836.226 582.898 836.45 577.769 836.548 573.5C841.453 573.5 846.349 573.5 851.254 573.5C852.122 578.36 849.831 583.193 856.624 582.289C857.519 579.55 857.43 577.608 856.848 574.789C847.235 566.966 835.134 568.496 836.226 552.412C836.378 550.175 836.754 547.794 838.034 545.896C843.342 538.073 865.808 538.673 870.731 546.773C872.494 549.664 872.091 553.8 871.84 556.986ZM130.276 541.519C130.276 557.809 130.276 574.099 130.276 590.389C124.458 590.389 118.64 590.389 112.813 590.389C112.813 574.099 112.813 557.809 112.813 541.519C118.64 541.519 124.458 541.519 130.276 541.519ZM254.921 541.519C254.921 557.809 254.921 574.099 254.921 590.38C249.148 590.38 243.375 590.38 237.611 590.38C237.611 574.099 237.611 557.809 237.611 541.519C243.375 541.519 249.148 541.519 254.921 541.519ZM399.205 541.528C399.205 557.818 399.205 574.099 399.205 590.38C393.396 590.38 387.587 590.38 381.787 590.38C381.787 574.099 381.787 557.818 381.787 541.528C387.587 541.528 393.396 541.528 399.205 541.528ZM448.477 541.519C450.563 551.517 452.657 561.515 454.743 571.504C455.79 561.506 456.837 551.508 457.884 541.51C462.61 541.51 467.327 541.51 472.044 541.51C472.429 545.869 471.507 550.148 470.836 554.48C469.502 563.207 468.67 572.005 467.309 580.741C466.558 585.574 466.191 591.777 461.823 594.874C455.817 599.134 444.521 597.998 437.638 597.165C437.638 594.569 437.638 591.974 437.638 589.369C439.464 589.369 441.281 589.369 443.107 589.369C444.101 584.393 442.23 579.568 441.075 574.663C439.697 568.765 438.381 562.875 437.074 556.968C435.956 551.884 434.076 546.702 433.986 541.519C438.82 541.519 443.644 541.519 448.477 541.519ZM648.273 541.528C650.34 550.157 648.872 562.938 648.917 572.104C648.926 573.947 648.72 580.571 649.57 581.779C650.179 582.638 650.815 582.352 651.656 582.746C652.453 582.334 653.061 582.585 653.607 581.734C654.511 580.338 654.028 573.983 654.028 572.104C654.028 562.016 653.249 551.553 654.341 541.537C659.89 541.537 665.449 541.537 670.998 541.537C670.998 557.693 670.998 573.849 670.998 590.005C668.492 590.47 656.427 591.392 654.502 590.237C653.768 589.79 653.679 588.644 653.446 587.883C647.422 591.804 635.876 594.194 632.824 585.145C631.293 580.607 632.045 575.048 632.045 570.313C632.045 561.479 630.658 549.906 632.69 541.528C637.89 541.528 643.081 541.528 648.273 541.528ZM729.579 541.546C729.579 557.827 729.579 574.117 729.579 590.398C723.743 590.398 717.916 590.398 712.08 590.398C712.08 574.117 712.08 557.827 712.08 541.546C717.916 541.546 723.743 541.546 729.579 541.546ZM783.516 541.528C783.516 557.818 783.516 574.109 783.516 590.408C777.644 590.408 771.782 590.408 765.91 590.408C765.91 574.109 765.91 557.818 765.91 541.528C771.782 541.528 777.644 541.528 783.516 541.528ZM157.584 549.199C154.2 550.506 154.693 553.45 154.648 556.887C154.585 562.848 154.621 568.828 154.648 574.789C154.666 578.53 153.959 581.152 157.584 582.683C160.054 580.508 159.642 578.118 159.642 574.789C159.651 568.819 159.696 562.857 159.66 556.887C159.642 553.71 160.036 551.266 157.584 549.199ZM281.102 549.342C278.507 554.533 279.849 568.478 279.885 574.788C279.903 578.7 279.107 581.107 282.893 582.763C283.564 582.154 284.047 582.101 284.548 581.259C285.524 579.604 285.094 576.623 285.094 574.788C285.103 569.418 285.086 564.047 285.086 558.677C285.086 556.296 285.578 553.172 284.719 550.899C284.02 549.064 282.749 549.44 281.102 549.342ZM329.435 549.28C325.112 550.444 326.016 555.107 326.75 558.947C328.173 558.947 329.596 558.947 331.019 558.947C331.44 555.653 331.708 551.697 329.435 549.28ZM562.502 558.894C562.654 556.987 563.827 550.077 561.142 549.424C560.077 549.173 559.226 549.621 558.161 549.728C558.161 552.78 558.161 555.841 558.161 558.894C559.611 558.894 561.061 558.894 562.502 558.894ZM810.979 549.252C806.629 550.416 807.497 555.088 808.294 558.946C809.708 558.946 811.131 558.946 812.545 558.946C812.93 555.571 813.261 551.732 810.979 549.252ZM942.157 578.511C946.381 578.511 950.606 578.511 954.831 578.511C954.831 582.458 954.831 586.414 954.831 590.362C950.606 590.362 946.381 590.362 942.157 590.362C942.157 586.414 942.157 582.458 942.157 578.511ZM1010.1 578.511C1014.3 578.511 1018.52 578.511 1022.73 578.511C1022.73 582.467 1022.73 586.414 1022.73 590.362C1018.52 590.362 1014.3 590.362 1010.1 590.362C1010.1 586.414 1010.1 582.467 1010.1 578.511Z" fill="#010101" fill-rule="evenodd" stroke-width="0.25" stroke="#010101" stroke-linejoin="round" transform="translate(1.271 0)" />
    <path d="M676.735 0.265556C679.689 3.57726 681.747 8.20471 684.173 12.0624C692.443 25.2019 698.288 39.5317 702.826 54.327C726.572 131.714 695.603 218.069 633.701 268.371C560.467 327.875 453.749 329.638 379.692 270.85C363.814 258.248 348.571 244.437 336.747 227.807C330.858 219.51 322.704 209.628 319.625 199.899C323.232 197.08 325.792 190.573 328.11 186.527C333.856 176.467 339.871 166.549 345.412 156.373C362.078 125.771 380.095 95.7055 398.113 65.8822C411.368 43.9354 420.82 23.1074 445.076 10.8183C468.679 -1.14864 492.147 0.883133 517.773 0.489319C551.74 -0.0208664 585.833 -0.208824 619.809 0.301353C633.235 0.498268 646.661 0.471413 660.087 0.471413C664.052 0.471413 673.781 1.63499 676.735 0.265556ZM673.441 5.19731C666.397 3.69363 658.351 4.66924 651.136 4.66924C637.415 4.66924 623.685 4.65133 609.964 4.59763C576.256 4.46336 542.53 4.35596 508.822 4.71399C483.438 4.9825 459.764 4.52602 438.166 19.9568C421.357 31.9685 413.508 48.5807 403.286 65.748C391.588 85.3945 379.907 105.077 368.495 124.893C358.918 141.524 348.929 158.01 339.701 174.864C337.061 179.68 328.925 191.154 328.88 195.845C332.648 196.919 336.703 197.142 340.551 198.011C348.079 199.702 357.728 204.473 365.524 201.68C369.48 200.266 371.735 196.149 373.767 192.801C378.609 184.817 383.577 176.887 388.374 168.876C396.367 155.504 405.184 142.58 412.979 129.1C420.48 116.113 428.016 103.081 436.063 90.4068C442.874 79.6661 447.609 65.6137 459.093 58.8381C473.172 50.523 490.42 53.3962 506.137 53.3604C534.484 53.3067 562.821 53.2708 591.168 53.3335C600.118 53.3514 609.069 53.3604 618.019 53.3246C621.796 53.3156 626.728 54.0048 630.353 52.8054C634.13 51.5613 638.731 44.5888 641.515 41.6799C647.95 34.958 653.473 27.4126 659.818 20.6013C664.482 15.5889 669.109 10.514 673.441 5.19731ZM466.755 67.7708C457.24 83.6133 447.726 99.4469 438.22 115.289C446.804 117.572 456.112 117.536 464.92 118.717C476.547 120.275 488.138 121.608 499.872 122.325C504.848 122.629 517.227 124.5 521.281 122.002C523.573 120.597 526.061 114.511 527.502 111.987C530.313 107.055 533.052 102.069 535.88 97.1555C538.028 93.4052 540.668 89.9324 541.85 85.7525C535.62 84.5352 528.612 85.5735 522.248 85.6988C512.644 85.8957 503.139 85.6003 493.606 84.5263C487.484 83.8371 481.255 83.0942 475.929 79.7019C471.176 76.6677 470.156 71.7269 466.755 67.7708ZM493.391 203.005C498.681 204.446 505.099 203.596 510.612 203.596C521.648 203.587 532.693 203.667 543.729 203.399C562.848 202.942 582.987 204.813 601.774 200.553C633.871 193.258 661.886 167.355 663.748 133.146C663.998 128.483 663.622 123.372 662.226 118.905C652.497 87.7932 620.284 87.3815 592.958 86.0658C585.493 85.7167 578.046 85.7077 570.581 85.5466C567.243 85.475 563.099 84.759 559.975 86.3253C556.618 87.9991 554.837 93.2978 553.092 96.4126C548.384 104.781 543.497 113.096 538.995 121.555C544.159 122.718 550.049 122.02 555.365 122.011C565.802 121.993 576.256 121.841 586.692 122.146C600.566 122.548 608.442 127.668 605.82 143C603.743 155.128 591.651 156.722 581.322 156.695C567.896 156.659 554.47 156.784 541.044 156.784C533.821 156.784 525.739 155.818 518.731 157.357C510.29 172.573 501.841 187.789 493.391 203.005ZM502.065 157.357C495.557 155.791 487.815 156.784 481.075 156.784C467.345 156.784 453.624 156.972 439.903 156.963C432.089 156.963 421.751 155.307 414.644 159.371C410.921 161.501 408.621 166.317 406.293 169.763C401.55 176.762 397.316 184.092 392.859 191.271C390.433 195.173 387.435 198.986 386.486 203.426C415.933 203.426 445.372 203.426 474.81 203.426C483.895 188.066 492.98 172.716 502.065 157.357ZM67.559 345.632C71.354 345.632 75.149 345.632 78.9351 345.632C79.329 350.323 78.2012 357.17 83.8938 358.906C86.3731 359.667 88.6197 359.443 91.0095 360.535C91.0095 363.363 91.0095 366.192 91.0095 369.02C96.6125 369.02 102.225 369.02 107.837 369.02C108.812 374.247 109.788 379.475 110.772 384.702C105.312 386.304 101.473 383.27 98.886 378.66C96.4962 378.66 94.1153 378.66 91.7255 378.66C88.9329 387.611 91.448 403.659 90.6962 413.8C86.4984 413.8 82.2916 413.8 78.0938 413.8C78.0938 402.075 78.0938 390.341 78.0938 378.606C75.4802 378.606 72.8577 378.606 70.2441 378.606C67.8633 383.717 64.113 385.561 58.6084 384.89C59.5124 379.752 60.4164 374.623 61.3204 369.486C66.655 368.555 73.7527 370.757 78.2638 367.696C76.0709 365.87 73.0546 364.903 71.0049 362.898C66.5923 358.62 66.3685 351.209 67.559 345.632ZM480.467 349.463C480.467 353.706 480.467 357.948 480.467 362.191C497.33 366.093 493.937 387.727 493.937 400.813C493.937 405.136 494.17 409.459 493.946 413.764C489.766 413.764 485.578 413.764 481.398 413.764C480.69 402.943 481.863 392.005 481.192 381.157C480.914 376.7 479.232 371.598 473.915 371.544C468.741 371.491 467.112 376.825 466.808 381.059C466.038 391.943 467.086 402.907 466.486 413.8C462.404 413.8 458.314 413.8 454.224 413.8C453.579 408.116 454.045 402.084 454.045 396.337C454.045 383.001 451.78 366.89 467.605 362.236C467.605 357.975 467.605 353.715 467.605 349.463C471.892 349.463 476.179 349.463 480.467 349.463ZM506.137 349.445C510.201 349.445 514.264 349.445 518.328 349.445C518.551 354.529 517.415 360.875 520.458 365.243C524.656 364.554 528.513 362.845 532.989 362.845C535.593 362.845 538.404 363.158 540.901 363.928C542.727 364.491 544.249 365.915 545.699 367.087C554.148 373.907 552.403 385.731 552.564 395.443C552.617 398.602 552.062 401.511 553.36 404.393C559.67 404.939 559.581 399.345 567.896 399.47C568.451 402.934 566.786 405.494 566.679 408.868C566.553 412.628 568.442 415.581 567.896 419.484C565.059 419.215 562.382 418.947 560.073 417.103C559.017 416.262 558.22 414.65 556.914 414.185C551.767 412.368 545.323 414.677 539.97 413.344C539.666 403.23 540.337 393.035 539.782 382.912C539.514 378.016 537.992 372.994 532.094 373.379C526.598 373.737 525.64 379.421 525.452 383.807C525.032 393.697 526.553 404.08 524.933 413.845C521.058 413.845 517.173 413.845 513.297 413.845C512.358 409.325 512.841 404.545 512.841 399.918C512.841 391.477 512.689 383.189 513.799 374.856C512.564 373.102 510.711 371.929 509.502 370.184C505.43 364.241 505.09 356.346 506.137 349.445ZM796.136 349.454C797.962 352.847 799.349 358.557 802.303 361.09C807.28 365.333 810.01 362.486 814.279 370.587C817.412 376.539 816.91 383.601 816.91 390.072C816.91 397.913 817.403 405.941 816.669 413.755C812.56 413.755 808.461 413.755 804.362 413.755C803.216 403.319 804.389 392.515 804.066 382.016C803.905 376.736 802.366 371.455 796.136 371.732C790.614 371.974 789.772 377.559 789.683 382.016C789.477 392.587 790.077 403.22 789.37 413.764C785.288 413.764 781.216 413.764 777.134 413.764C776.454 405.324 776.892 396.749 776.91 388.282C776.919 381.202 776.776 372.869 781.645 367.069C783.444 364.93 786.183 363.829 788.439 362.325C788.242 357.662 785.207 353.992 784.187 349.454C788.17 349.454 792.153 349.454 796.136 349.454ZM156.644 364.572C161.048 364.572 165.46 364.572 169.864 364.572C170.67 369.897 171.475 375.214 172.281 380.54C168.727 380.889 165.362 380.414 162.838 377.55C162.14 376.763 162.059 375.348 161.209 374.749C159.956 373.871 158.452 374.292 157.065 374.346C155.552 376.512 154.961 379.206 153.189 381.274C149.913 385.087 145.187 386.438 141.177 389.177C142.422 397.241 143.746 405.521 142.744 413.764C138.591 413.764 134.438 413.764 130.276 413.764C129.658 407.221 131.135 399.801 129.13 393.464C125.961 383.458 116.42 375.644 119.669 363.99C122.954 352.184 140.748 349.266 150.2 355.272C153.422 357.313 155.158 361.269 156.644 364.572ZM232.25 353.169C233.485 360.419 230.459 371.043 225.59 376.709C223.353 379.313 220.095 381.014 218.152 383.807C220.864 386.814 223.836 389.168 225.026 393.33C226.02 396.803 225.313 400.643 225.984 404.151C235.015 405.565 234.228 394.986 234.935 389.231C238.81 389.231 242.695 389.231 246.57 389.231C247.618 391.871 247.707 394.386 247.313 397.241C244.727 416.056 229.099 413.881 214.348 413.881C205.702 413.881 196.483 414.525 191.524 406.085C190.477 404.312 190.28 401.645 190.173 399.631C189.269 383.234 204.986 382.097 213.552 372.717C219.128 366.613 218.448 360.455 220.614 353.151C224.024 352.077 228.947 351.862 232.25 353.169ZM277.289 389.177C278.381 392.023 279.482 394.87 280.583 397.707C287.448 397.707 294.304 397.707 301.169 397.707C302.163 402.925 303.147 408.134 304.141 413.344C298.699 414.713 294.608 412.431 292.747 407.311C283.921 407.311 275.087 407.311 266.262 407.311C264.239 412.35 260.113 414.606 254.832 413.344C255.852 408.143 256.873 402.934 257.902 397.734C260.802 397.734 263.702 397.734 266.611 397.734C265.85 393.133 262.87 389.141 261.572 384.532C257.508 370.193 261.939 352.095 279.661 352.372C289.632 352.524 297.499 358.351 298.09 368.591C298.242 371.294 298.18 374.82 296.846 377.3C292.514 385.337 285.506 386.966 277.289 389.177ZM13.8555 353.276C14.8669 356.892 13.8734 361.314 15.5561 364.751C18.5993 370.971 27.6662 366.604 32.2758 369.486C30.7363 373.666 29.1968 377.837 27.6573 382.016C32.2937 385.328 36.2946 387.942 39.3825 392.838C41.6202 396.4 42.0498 400.84 44.0637 404.393C45.7195 404.572 47.5992 404.948 49.2192 404.348C50.3917 403.918 50.6871 402.97 51.5016 402.173C54.1062 399.613 57.3553 398.969 60.7296 399.918C60.3448 403.202 59.0201 406.443 59.0111 409.763C59.0111 412.905 60.5954 415.626 60.3627 418.714C55.0371 420.056 52.7457 417.837 49.6578 413.872C43.7862 413.872 37.9057 413.872 32.0341 413.872C31.0227 407.561 30.9779 392.891 22.8061 391.719C19.5212 399.076 16.2453 406.443 12.9604 413.8C8.63731 413.8 4.32313 413.8 0 413.8C5.14658 401.412 10.2932 389.034 15.4397 376.646C13.2737 375.429 10.5617 374.981 8.5299 373.522C2.2287 368.984 1.67376 360.231 3.1148 353.276C6.69503 353.276 10.2753 353.276 13.8555 353.276ZM339.657 353.276C343.899 358.745 346.02 366.031 348.911 372.296C352.402 379.85 355.821 387.512 359.366 395.022C362.257 401.171 365.703 407.15 367.242 413.791C363.116 413.791 358.999 413.791 354.872 413.791C351.973 405.852 347.399 398.459 343.998 390.663C342.109 386.331 340.435 380.477 336.971 377.219C332.818 378.741 330.581 382.491 329.131 386.492C333.695 388.917 337.365 388.228 341.08 392.712C345.788 398.387 342.959 408.474 336.783 411.84C330.983 414.999 317.575 414.749 311.319 413.344C311.453 400.678 315.875 383.744 323.751 373.701C326.132 370.658 329.999 369.378 332.648 366.801C331.109 362.289 329.56 357.778 328.021 353.276C331.896 353.276 335.781 353.276 339.657 353.276ZM400.019 353.24C400.485 358.53 400.95 363.82 401.415 369.11C406.786 369.11 412.156 369.11 417.526 369.11C418.422 374.409 419.317 379.707 420.212 385.015C414.644 385.659 411.485 383.261 408.576 378.651C406.186 378.651 403.805 378.651 401.415 378.651C400.073 384.308 400.028 398.692 401.415 404.304C403.671 404.697 406.831 405.154 409.05 404.375C414.143 402.594 413.185 397.814 420.534 399.918C420.292 402.943 418.994 405.861 418.932 408.868C418.86 412.35 420.409 415.536 420.212 419.027C417.885 419.251 415.45 419.341 413.284 418.043C411.494 416.978 410.581 414.552 408.486 414.033C402.346 412.493 394.559 414.534 388.034 413.344C388.034 402.003 388.034 390.672 388.034 379.331C385.609 378.66 382.682 377.917 380.265 379.251C375.351 381.963 377.356 386.689 368.495 384.702C369.48 379.493 370.464 374.283 371.449 369.074C376.998 369.074 382.548 369.074 388.088 369.074C388.088 363.802 388.088 358.521 388.088 353.24C392.071 353.24 396.045 353.24 400.019 353.24ZM637.711 376.136C642.633 376.136 647.565 376.136 652.488 376.136C653.473 381.381 654.448 386.617 655.424 391.862C651.557 392.515 648.407 391.898 645.659 388.864C644.746 387.861 644.155 386.107 642.804 385.597C641.148 384.97 639.053 385.382 637.371 385.597C634.873 391.468 635.097 397.886 630.344 402.88C623.882 409.656 616.238 406.702 608.174 408.286C604.495 409.011 601.711 412.368 597.97 413.352C587.301 416.163 578.359 409.996 575.88 399.622C572.9 387.118 573.132 371.437 581.313 360.938C588.644 351.531 600.36 353.366 610.859 353.24C617.608 353.16 625.386 353.052 630.514 358.288C635.419 363.301 635.813 369.781 637.711 376.136ZM699.344 354.27C700.176 362.388 696.605 371.652 690.948 377.487C686.106 382.491 677.863 386.483 676.028 393.751C673.709 402.916 682.642 409.137 689.131 403.462C692.729 400.32 691.808 395.093 692.309 390.877C695.746 389.177 701.116 389.517 704.714 390.967C705.573 397.68 704.464 405.995 698.852 410.488C689.722 417.792 669.315 417.103 664.079 405.252C659.854 395.702 665.144 384.988 672.367 378.669C675.007 376.36 678.265 374.328 680.637 371.723C685.363 366.541 686.061 360.589 686.938 353.947C690.635 352.542 695.871 352.479 699.344 354.27ZM745.565 353.249C745.565 358.539 745.565 363.829 745.565 369.11C751.186 369.11 756.807 369.11 762.428 369.11C763.367 374.31 764.316 379.501 765.256 384.702C756.01 386.939 758.436 381.238 753.021 379C750.765 378.06 747.928 378.624 745.583 378.812C745.583 387.342 745.583 395.872 745.583 404.393C748.044 404.679 751.92 405.288 754.229 404.169C759.161 401.77 757.72 398.065 765.301 399.918C764.925 403.131 763.591 406.505 763.663 409.736C763.743 413.111 765.229 415.787 764.808 419.206C756.547 419.645 757.684 414.955 753.128 413.997C746.603 412.627 739.523 414.793 732.962 413.343C732.962 401.806 732.962 390.278 732.962 378.741C730.152 378.741 727.341 378.741 724.531 378.741C722.785 383.637 718.283 385.991 713.307 384.702C714.318 379.501 715.321 374.301 716.332 369.092C721.89 369.092 727.449 369.092 733.007 369.092C733.007 363.811 733.007 358.53 733.007 353.249C737.196 353.249 741.376 353.249 745.565 353.249ZM862.37 353.276C862.952 356.472 862.496 359.837 863.194 362.988C864.85 370.399 874.847 368.045 880.271 368.6C880.245 372.797 877.461 377.121 875.895 381.121C877.971 384.182 881.695 385.525 884.272 388.327C890.547 395.129 892.561 404.778 892.579 413.8C888.479 413.8 884.371 413.8 880.271 413.8C879.35 406.559 879.511 395.621 872.216 391.54C868.752 393.786 863.122 409.119 861.198 413.782C856.946 413.782 852.704 413.782 848.452 413.782C853.608 401.403 858.763 389.025 863.919 376.646C860.365 374.784 856.356 373.871 853.652 370.604C850.108 366.326 849.535 358.181 851.63 353.276C855.21 353.276 858.79 353.276 862.37 353.276ZM982.308 413.809C978.226 413.809 974.145 413.809 970.063 413.809C973.93 404.402 977.797 395.004 981.663 385.597C979.059 384.657 976.239 384.818 973.527 384.013C962.321 380.674 966.555 371.24 965.185 362.764C962.715 362.764 960.245 362.764 957.765 362.764C957.765 369.889 957.765 377.022 957.765 384.156C950.828 387.673 944.724 391.486 936.49 390.931C932.766 390.672 928.291 389.965 925.248 387.584C918.848 382.581 917.801 371.518 921.515 364.652C927.996 352.668 942.854 353.285 954.561 353.249C961.721 353.232 968.873 353.124 976.042 353.205C982.245 353.276 989.808 352.131 995.671 354.744C1001.55 357.367 1002.61 364.429 1001.18 370.148C999.663 376.333 995.384 384.227 992.762 390.224C989.316 398.101 986.434 406.264 982.308 413.809ZM137.373 379.878C145.778 377.139 147.676 362.057 138.268 361.941C127.948 361.824 132.012 376.02 137.373 379.878ZM274.147 380.226C279.661 381.202 284.861 376.87 285.469 371.276C285.827 368.027 285.335 363.695 281.8 362.441C271.56 358.817 272.16 374.722 274.147 380.226ZM599.222 363.104C586.378 361.985 585.966 385.069 587.264 393.634C587.846 397.474 588.732 403.444 593.368 404.384C598.112 405.351 599.732 400.947 599.705 397.233C599.633 388.094 601.155 371.267 599.222 363.104ZM612.353 398.137C614.734 398.45 617.5 398.96 619.746 397.707C625.439 394.521 625.027 379.734 624.347 374.23C623.935 370.936 623.371 366.102 620.516 363.838C618.135 361.949 614.994 362.639 612.353 363.22C612.353 374.856 612.353 386.501 612.353 398.137ZM944.849 363.22C941.922 362.889 938.539 362.889 936.086 364.921C931.539 368.671 929.991 379.126 936.901 381.229C939.702 382.079 942.253 381.211 944.849 380.227C944.849 374.561 944.849 368.886 944.849 363.22ZM978.726 362.987C977.939 366.478 977.706 369.656 978.699 373.066C981.053 375.08 982.843 375.196 985.887 375.008C988.867 372.063 989.395 367.633 988.572 363.668C985.224 362.486 982.19 362.433 978.726 362.987ZM208.083 389.544C201.997 392.668 199.974 403.892 207.403 404.42C215.27 404.993 214.125 392.748 208.083 389.544ZM326.231 396.069C324.387 398.924 324.146 401.932 324.163 405.288C329.498 405.888 333.696 402.934 331.494 397.233C329.498 395.962 328.585 395.89 326.231 396.069ZM909.81 404.903C911.654 408.394 911.788 410.667 909.81 414.167C901.952 416.673 900.009 410.81 903.527 404.903C905.621 404.903 907.716 404.903 909.81 404.903ZM1015.42 404.394C1017.05 405.289 1018.67 406.184 1020.3 407.079C1020.3 409.164 1020.3 411.259 1020.3 413.344C1017.02 414.83 1014.93 415.152 1011.7 413.344C1009.98 409.111 1011.25 406.13 1015.42 404.394Z" fill="#F7941D" fill-rule="evenodd" stroke-width="0.25" stroke="#F7941D" stroke-linejoin="round" transform="translate(0 97.001)" />
  </g>
</svg>