<?xml version="1.0" encoding="utf-8"?>
<svg width="570.69" height="1024" viewBox="0 0 570.69 1024" fill="none" xmlns="http://www.w3.org/2000/svg">
  <defs>
    <clipPath id="clip_path_1">
      <rect width="570.69" height="1024" />
    </clipPath>
  </defs>
  <g clip-path="url(#clip_path_1)">
    <path d="M75.5605 0C93.66 0 111.816 0 129.915 0C135.159 7.49915 174.91 13.7578 190.585 38.3979C200.34 53.7345 203.723 71.834 203.666 89.8207C203.384 148.179 159.01 177.611 103.809 177.95C28.8177 178.401 -26.0446 113.84 12.8608 41.1608C28.3666 12.1791 69.5273 8.96515 75.5605 0ZM444.992 0C462.641 0 480.233 0 497.825 0C506.959 12.1227 545.244 9.8673 562.498 43.5289C569.884 57.9634 570.843 73.8074 570.674 89.8207C570.053 148.01 525.453 178.739 469.294 177.893C413.079 177.104 371.692 148.291 371.241 89.8207C371.129 70.5935 373.497 52.2121 384.83 36.1425C402.873 10.4312 434.167 11.7844 444.992 0ZM251.875 393.79C221.258 394.185 190.698 394.636 160.081 395.03C160.307 565.143 160.532 735.255 160.758 905.368C179.816 906.552 198.93 907.679 218.044 908.863C218.044 945.344 218.044 981.825 218.044 1018.31C147.845 1018.76 77.7031 1019.15 7.50424 1019.6C7.61703 772.413 7.72982 525.279 7.89897 278.089C89.3747 277.751 170.85 277.412 252.326 277.018C261.517 295.004 255.54 344.397 255.54 366.274C255.54 374.788 258.247 387.926 251.875 393.79ZM408.624 394.297C379.586 394.072 350.548 393.903 321.51 393.677C314.237 388.264 317.169 374.958 317.169 366.274C317.169 340.056 310.91 304.364 318.916 279.442C401.069 279.273 483.165 279.16 565.261 278.991C566.05 525.11 566.84 771.172 567.629 1017.29C553.984 1025.92 528.724 1021.13 512.71 1021.13C473.861 1021.13 389.905 1028.51 356.412 1019.6C356.75 981.825 357.089 944.047 357.371 906.326C376.429 905.819 395.43 905.311 414.488 904.804C415.278 735.537 416.011 566.271 416.8 397.004C414.037 396.102 411.331 395.2 408.624 394.297Z" fill="#F79220" fill-rule="evenodd" stroke-width="0.25" stroke="#F79220" stroke-linejoin="round" />
  </g>
</svg>