<?xml version="1.0" encoding="utf-8"?>
<svg width="1024" height="1024" viewBox="0 0 1024 1024" fill="none" xmlns="http://www.w3.org/2000/svg">
  <g>
    <path d="M207.792 25.5797C207.792 25.5797 13.1364 283.072 13.1364 283.072C-18.9221 325.497 11.3448 386.287 64.5198 386.287C64.5198 386.287 453.83 386.287 453.83 386.287C507.005 386.287 537.272 325.497 505.213 283.072C505.213 283.072 310.558 25.5797 310.558 25.5797C284.771 -8.52667 233.579 -8.52667 207.856 25.5797C207.856 25.5797 207.792 25.5797 207.792 25.5797Z" fill="#245EFE" transform="matrix(1 0 0 1 415 555.565)" />
    <path d="M292.029 0.0640488C292.029 0.0640488 292.349 0.0640488 292.349 0.0640488C345.524 0.0640488 375.791 60.8538 343.733 103.279C343.733 103.279 327.799 129.386 327.799 129.386C302.588 162.661 314.234 206.877 345.14 226.714C359.986 236.248 378.607 238.04 395.308 232.345C395.308 232.345 438.053 217.755 438.053 217.755C477.534 204.254 520.151 232.025 521.559 273.682C522.007 287.568 517.975 301.965 508.249 314.699C508.249 314.699 503.642 320.778 503.642 320.778L503.77 320.906C503.77 320.906 115.803 832.308 115.803 832.308C103.645 848.369 84.6402 857.776 64.4836 857.776C64.4836 857.776 64.4836 857.776 64.4836 857.776C11.2446 857.776 -18.9583 796.858 13.2282 754.433C13.2282 754.433 269.761 424.697 269.761 424.697C272.321 421.369 274.752 417.85 276.928 414.266C282.047 405.692 285.246 399.101 288.318 390.59C289.79 386.495 290.813 383.231 291.389 379.968C298.876 336.711 259.715 288.976 200.717 310.732C200.717 310.732 151.509 331.784 151.509 331.784C110.684 347.397 65.5715 317.451 66.4673 273.746C66.7233 260.948 70.8826 247.894 79.7771 236.248C79.7771 236.248 240.838 25.3397 240.838 25.3397C252.996 9.40643 271.937 0 292.029 0C292.029 0 292.029 0.0640488 292.029 0.0640488Z" fill="#245EFE" transform="matrix(1 0 0 1 90.353 84.329)" />
  </g>
</svg>